<svg width="17" height="27" viewBox="0 0 17 27" fill="none" xmlns="http://www.w3.org/2000/svg">
<path d="M16.9257 19.5493C16.5342 22.2278 13.5 24.7168 13.6619 26.413H7.49997C7.14243 24.7168 4.86591 23.6212 4.13148 22.3098C2.38963 19.1989 1.11454 16.4319 1.11454 16.4319L1.07592 16.302C0.981372 15.9044 0.499961 14.4075 1.39553 13.9083C1.71513 13.5731 2.03674 13.4517 2.44224 13.4727C3.09476 13.5062 3.39373 13.7541 3.73331 14.4075L4.07355 15.0334C4.07355 15.0334 4.48172 15.9492 5.37928 17.5564C5.39829 17.5903 5.4173 17.6202 5.43579 17.6493L5.44054 17.6568V7.55663C5.44054 6.66379 6.21824 5.95004 7.14243 6.03664C7.94811 6.11274 8.54004 6.82451 8.54004 7.62223V12.3692C8.54004 11.5642 9.24118 10.9207 10.0748 10.9987C10.8019 11.067 11.3353 11.7092 11.3353 12.4282V13.4378C11.3353 12.6329 12.0364 11.9893 12.87 12.0674C13.5971 12.1356 14.1305 12.7779 14.1305 13.4969V14.7184C14.1305 13.9134 14.8316 13.2699 15.6652 13.3479C16.3924 13.4162 16.9257 14.0584 16.9257 14.7774V15.5994C16.9257 15.5994 17.0928 18.4091 16.9257 19.5493Z" fill="white"/>
<path fill-rule="evenodd" clip-rule="evenodd" d="M10 13.3264C12.3649 12.2029 14 9.7924 14 7C14 3.13401 10.866 0 7 0C3.13401 0 0 3.13401 0 7C0 9.7924 1.63505 12.2029 4 13.3264V12.1973C2.2066 11.1599 1 9.22085 1 7C1 3.68629 3.68629 1 7 1C10.3137 1 13 3.68629 13 7C13 9.22085 11.7934 11.1599 10 12.1973V13.3264ZM10 9.64583C10.6224 8.94069 11 8.01445 11 7C11 4.79086 9.20914 3 7 3C4.79086 3 3 4.79086 3 7C3 8.01445 3.37764 8.94069 4 9.64583V7C4 5.34315 5.34315 4 7 4C8.65685 4 10 5.34315 10 7V9.64583Z" fill="white"/>
</svg>
