<svg width="24" height="22" viewBox="0 0 24 22" fill="none" xmlns="http://www.w3.org/2000/svg">
<g clip-path="url(#clip0)">
<path d="M0.00576175 14.388L0.84813 14.3823C0.925338 14.3914 1.0279 14.0967 1.05959 14.0267C2.23671 11.3926 7.97023 12.1333 8.14827 12.1476C8.85121 12.2022 10.0076 12.2187 10.0076 12.2187L13.944 12.2306C14.8699 12.3427 15.2439 12.8769 15.2836 13.4305C15.2998 13.6529 15.264 13.8805 15.1811 14.0887C14.9045 14.7862 14.2108 14.867 13.3218 14.8704C13.3183 14.8693 13.3148 14.8687 13.312 14.8676L9.41701 14.8351C8.42829 14.8181 8.37989 15.8649 9.09089 16.1146C9.65382 16.3126 15.5965 17.7582 18.8657 16.0282C18.8692 16.0264 22.4847 13.757 22.4847 13.757C22.9485 13.5243 23.5224 13.662 23.8254 14.0796C23.8537 14.1189 23.8802 14.1615 23.9038 14.2048C24.2092 14.7805 23.72 15.3602 23.3996 15.6555L20.9411 17.806C20.9411 17.806 17.5826 20.3582 15.1724 20.8827L10.018 21.8789C9.8405 21.9039 9.57143 21.9136 9.45043 21.9136C9.27758 21.9136 9.03673 21.8926 8.85178 21.8647L6.37077 21.4044L6.3627 21.4016L6.36213 21.4033L1.35228 20.3906L0 20.3878L0.00576175 14.388Z" fill="white"/>
<path d="M15.2772 6.50957C14.4187 6.17163 14.0552 5.94236 14.0546 5.5333C14.0546 5.19423 14.3064 4.83524 15.0128 4.83467C15.2951 4.83467 15.5359 4.87336 15.7393 4.92627C15.7866 4.61564 15.8897 4.31297 16.0464 4.03022C15.8252 3.97504 15.5682 3.93578 15.2646 3.92668L15.264 2.99991L14.436 3.00048L14.4372 3.97731C13.4173 4.15766 12.8124 4.81647 12.8129 5.67383C12.8141 6.60116 13.5009 7.07906 14.5616 7.45682C15.3095 7.72535 15.6627 8.01436 15.6633 8.46267C15.6638 8.94113 15.2294 9.25062 14.5939 9.25119C13.978 9.25176 13.4122 9.04296 13.018 8.81369L12.7461 9.75127C13.1097 9.99021 13.7463 10.1694 14.3824 10.1882L14.383 11.1554L15.211 11.1548L15.2098 10.1279C16.3207 9.94755 16.9159 9.19885 16.9147 8.35173C16.9136 7.46535 16.4083 6.92715 15.2772 6.50957Z" fill="white"/>
<path d="M9.87729 11.627L12.2603 11.6338C10.3509 10.7924 9.01936 8.9013 9.01936 6.70357C9.01936 3.723 11.4664 1.30738 14.4844 1.30738C17.503 1.30738 19.9494 3.72357 19.9494 6.70357C19.9494 9.43552 17.8936 11.6924 15.2265 12.0503C15.5244 12.3046 15.665 12.6431 15.6903 12.9884C15.6978 13.0931 15.6949 13.1989 15.6822 13.3036C18.8604 12.7449 21.274 10.0027 21.274 6.70357C21.2746 3.00162 18.2347 0 14.485 0C10.7352 0 7.69531 3.00162 7.69531 6.70414C7.69531 8.65041 8.53595 10.4027 9.87729 11.627Z" fill="white"/>
</g>
<defs>
<clipPath id="clip0">
<rect width="24" height="21.913" fill="white"/>
</clipPath>
</defs>
</svg>
