<svg width="27" height="15" viewBox="0 0 27 15" fill="none" xmlns="http://www.w3.org/2000/svg">
<path d="M14.343 11.0552C14.2605 10.9264 14.1534 10.7823 13.7524 10.4393C13.5827 10.2947 13.166 10.0361 12.943 9.90686C12.9331 9.90105 12.9237 9.89525 12.9137 9.88891L12.1623 9.39444C11.7842 10.1227 11.2824 10.775 10.6819 11.3196C10.8036 11.4499 10.9498 11.5613 11.119 11.6441C11.8647 12.0104 12.7633 11.6964 13.1258 10.9428L13.1524 10.8884C12.9419 11.5892 13.2605 12.3613 13.9331 12.6916C14.4647 12.9523 15.0725 12.8674 15.5096 12.5249C15.0808 12.0906 14.6913 11.6003 14.343 11.0552Z" fill="white"/>
<path d="M10.5629 8.34236C9.77651 10.0179 8.08774 11.1767 6.13055 11.1767C3.42298 11.1767 1.22768 8.95821 1.22768 6.22197C1.22768 3.48574 3.42298 1.26721 6.13055 1.26721C7.16502 1.26721 8.12429 1.59123 8.91541 2.14375C9.07468 2.11103 9.23865 2.09362 9.40418 2.09362C9.83447 2.09309 10.2595 2.2076 10.6345 2.42397L11.2533 2.74113C10.1462 1.08778 8.27207 0.00120334 6.14779 0.00331423C2.74935 0.00595283 -0.00313049 2.79285 2.67221e-06 6.22725C0.00313583 9.66166 2.76032 12.4433 6.15927 12.4401C8.54831 12.438 10.6183 11.0601 11.636 9.04845L10.5629 8.34236Z" fill="white"/>
<path d="M19.7713 1.05808C18.8408 0.606348 17.2199 0.350933 15.4982 0.209504C15.223 0.186812 14.9066 0.166231 14.5635 0.147761C12.8982 0.0569936 10.5802 0.0110821 9.00058 0C10.3896 0.651732 11.5254 1.76522 12.2136 3.14415L18.5269 7.06457L18.3337 7.03449L10.3541 2.94731C9.45332 2.41748 8.2977 2.72619 7.77394 3.63651C7.24966 4.54682 7.55515 5.71466 8.45645 6.24396L13.2356 9.38969C13.2356 9.38969 13.8591 9.75012 14.1332 9.98443C14.5635 10.3523 14.7144 10.538 14.8387 10.7322C17.3087 14.5983 20.458 14.2373 22.0121 14.0204C22.0121 14.0204 23.6805 13.6479 24.3087 13.8267L24.9113 14.0004L27.0006 6.51363L26.623 6.40808C25.5087 6.0904 25.0972 5.62126 24.8131 5.32415C23.4283 3.87767 20.9896 1.65018 19.7713 1.05808Z" fill="white"/>
<path d="M6.53569 5.69358C5.75763 5.38011 5.42812 5.16744 5.4276 4.78801C5.4276 4.47349 5.6558 4.1405 6.29601 4.13997C6.55188 4.13997 6.77016 4.17586 6.95449 4.22494C6.99731 3.9368 7.09078 3.65605 7.23282 3.39378C7.0323 3.34259 6.7994 3.30618 6.52421 3.29773L6.52368 2.43808L5.77329 2.43861L5.77434 3.3447C4.85005 3.51199 4.30175 4.12309 4.30227 4.91836C4.30332 5.77854 4.92577 6.22182 5.88713 6.57223C6.56494 6.82131 6.88504 7.08939 6.88556 7.50524C6.88608 7.94905 6.49235 8.23613 5.91637 8.23665C5.35815 8.23718 4.84535 8.04351 4.48817 7.83084L4.2417 8.70052C4.5712 8.92216 5.14823 9.08839 5.72473 9.10581L5.72525 10.0029L6.47564 10.0024L6.4746 9.04987C7.48138 8.88258 8.02081 8.1881 8.01977 7.40233C8.01924 6.57962 7.56076 6.08092 6.53569 5.69358Z" fill="white"/>
</svg>
