<svg width="24" height="24" viewBox="0 0 24 24" fill="none" xmlns="http://www.w3.org/2000/svg">
<path d="M12.8991 24H0L0.206239 23.216H12.6921L12.8991 24Z" fill="white"/>
<path d="M14.1011 14.6871C13.9573 14.6957 13.7892 14.7177 13.3224 14.8871C13.125 14.9589 12.7198 15.1787 12.5107 15.3004C12.5011 15.3054 12.4923 15.3111 12.4828 15.3161L11.729 15.6995C12.1503 16.327 12.4519 17.02 12.6207 17.7449C12.7837 17.7051 12.9429 17.6375 13.0897 17.5386C13.7356 17.1032 13.8956 16.2417 13.4457 15.6156L13.4134 15.57C13.8905 16.051 14.6706 16.1385 15.2534 15.7451C15.7136 15.4342 15.9257 14.9084 15.8479 14.4047C15.2923 14.5555 14.7095 14.6501 14.1011 14.6871Z" fill="white"/>
<path d="M6.83009 18.6172C6.20036 18.3732 5.87449 18.196 5.82385 17.9079C5.47009 17.799 5.14715 17.6098 4.8844 17.3551C4.79706 17.5315 4.75009 17.7286 4.75009 17.9406C4.75009 18.7886 5.49357 19.1636 6.22091 19.419C6.86898 19.6481 7.1332 19.8843 7.1332 20.2343C7.1332 20.6192 6.78678 20.8682 6.251 20.8682C5.65504 20.8682 5.17357 20.6434 4.93944 20.5096L4.9277 20.5089C4.92403 20.5103 4.9211 20.5132 4.91963 20.5175L4.69137 21.2872C4.6899 21.2929 4.69211 21.2986 4.69651 21.3015C4.99155 21.4921 5.49944 21.633 5.99045 21.66C6.02935 21.6622 6.05944 21.6935 6.05944 21.7312V22.4455C6.05944 22.4526 6.06531 22.4583 6.07265 22.4583H6.7655C6.77284 22.4583 6.77871 22.4526 6.77871 22.4455V21.6721C6.77871 21.638 6.80366 21.6088 6.83816 21.6024C7.66972 21.4452 8.20696 20.8732 8.20696 20.144C8.2077 19.4247 7.79596 18.9679 6.83009 18.6172Z" fill="white"/>
<path d="M8.42477 5.88083C7.6233 6.42651 6.66183 7.61463 5.74733 8.93437C5.60128 9.14567 5.43761 9.39041 5.26293 9.6572C4.41669 10.9535 3.3033 12.7947 2.56128 14.0582C3.74073 13.2329 5.18 12.816 6.62954 12.8772L12.7705 9.55191L12.656 9.69348L5.60495 14.2823C4.75284 14.7697 4.47027 15.8347 4.97302 16.6607C5.47578 17.4867 6.57449 17.7606 7.4266 17.2733L12.2215 14.8358C12.2215 14.8358 12.8064 14.4958 13.125 14.3798C13.6262 14.1984 13.8479 14.1592 14.0651 14.1464C18.3793 13.8832 19.5448 11.1939 20.0879 9.85C20.0879 9.85 20.5561 8.34458 20.9943 7.91984L23.9998 5.0086L18.8328 0L15.9881 2.76042C15.2108 3.51384 14.6354 3.6355 14.2604 3.73155C12.4321 4.19897 9.47504 5.16654 8.42477 5.88083Z" fill="white"/>
<path d="M11.3055 19.1223C11.3055 18.0978 10.9745 17.1495 10.4116 16.369L11.1998 15.9685C12.3763 17.6802 12.5459 19.9554 11.4391 21.8749C11.0193 22.6027 10.4578 23.2046 9.80752 23.6692H7.97046C9.91174 23.0139 11.3055 21.2261 11.3055 19.1223Z" fill="white"/>
<path d="M1.24096 16.3491C2.22445 14.6423 3.98445 13.6214 5.85307 13.4684L5.30628 13.8241C4.95472 14.029 4.66408 14.3193 4.46518 14.6651V14.6658C2.65307 15.3829 1.37601 17.1075 1.37601 19.1223C1.37601 21.2268 2.76977 23.0139 4.71032 23.6685H2.87325C0.53564 22.0008 -0.211516 18.869 1.24096 16.3491Z" fill="white"/>
</svg>
